<svg width="157" height="117" viewBox="0 0 157 117" fill="none" xmlns="http://www.w3.org/2000/svg">
<path d="M105.728 0.988037H63.2205C62.7449 0.988037 62.3594 1.37626 62.3594 1.85517V31.4651C62.3594 31.944 62.7449 32.3322 63.2205 32.3322H105.728C106.203 32.3322 106.589 31.944 106.589 31.4651V1.85517C106.589 1.37626 106.203 0.988037 105.728 0.988037Z" fill="#0D2192"/>
<path opacity="0.08" d="M78.72 0.988037H62.3594V32.3322H78.72V0.988037Z" fill="white"/>
<path d="M118.372 30.3101H49.9941C49.1095 30.3101 48.3923 31.0322 48.3923 31.923V36.2201C48.3923 37.1109 49.1095 37.833 49.9941 37.833H118.372C119.257 37.833 119.974 37.1109 119.974 36.2201V31.923C119.974 31.0322 119.257 30.3101 118.372 30.3101Z" fill="#0D2192"/>
<path opacity="0.08" d="M70.5398 30.3101H48.3923V39.569H70.5398V30.3101Z" fill="white"/>
<path fill-rule="evenodd" clip-rule="evenodd" d="M40 81.9817H28.7941V78.4856C27.7236 79.8207 26.6417 80.7937 25.5485 81.4047C23.6353 82.4682 21.4602 83 19.0231 83C15.0828 83 11.5753 81.6536 8.50046 78.9608C4.83347 75.7476 3 71.4935 3 66.1984C3 60.8129 4.87902 56.5135 8.63712 53.3003C11.6208 50.7432 15.0486 49.4648 18.9206 49.4648C21.1755 49.4648 23.2936 49.9399 25.2752 50.8903C26.414 51.4334 27.5869 52.3272 28.7941 53.5718V31H40V81.9817ZM27.0175 61.158C28.4297 62.5496 29.1357 64.2411 29.1357 66.2324C29.1357 68.2463 28.4354 69.9434 27.0346 71.3238C25.6339 72.7041 23.92 73.3943 21.8929 73.3943C19.638 73.3943 17.8046 72.557 16.3924 70.8825C15.2308 69.5248 14.65 67.9748 14.65 66.2324C14.65 64.49 15.2308 62.94 16.3924 61.5823C17.8273 59.9077 19.6608 59.0705 21.8929 59.0705C23.8972 59.0705 25.6054 59.7663 27.0175 61.158Z" fill="#0D2192"/>
<path fill-rule="evenodd" clip-rule="evenodd" d="M82 81.998H70.7941V78.5577C69.7236 79.8715 68.6417 80.8289 67.5485 81.4302C65.6353 82.4767 63.4602 83 61.0231 83C57.0828 83 53.5753 81.6751 50.5005 79.0253C46.8335 75.8633 45 71.6771 45 66.4666C45 61.167 46.879 56.9363 50.6371 53.7743C53.6208 51.2581 57.0486 50 60.9206 50C63.1754 50 65.2936 50.4676 67.2752 51.4028C68.414 51.9372 69.587 52.8168 70.7941 54.0415V51.002H82V81.998ZM69.0175 61.5066C70.4297 62.876 71.1357 64.5405 71.1357 66.5C71.1357 68.4818 70.4354 70.1518 69.0346 71.5101C67.6339 72.8684 65.92 73.5476 63.8929 73.5476C61.638 73.5476 59.8046 72.7237 58.3924 71.0759C57.2308 69.7399 56.65 68.2146 56.65 66.5C56.65 64.7854 57.2308 63.2601 58.3924 61.9241C59.8273 60.2763 61.6608 59.4524 63.8929 59.4524C65.8972 59.4524 67.6054 60.1371 69.0175 61.5066Z" fill="#0D2192"/>
<path fill-rule="evenodd" clip-rule="evenodd" d="M125 66.889C125 72.3026 123.124 76.6243 119.372 79.8543C116.393 82.4246 112.97 83.7098 109.105 83.7098C106.853 83.7098 104.738 83.2321 102.76 82.2767C101.623 81.7308 100.452 80.8324 99.2466 79.5813L99.2352 82.9165L100.205 109.372L93.6027 114L87 109.372L88.0584 82.9165V51.0236H99.2466V54.5378C100.247 53.2186 101.327 52.2405 102.487 51.6036C104.397 50.5345 106.569 50 109.002 50C112.936 50 116.438 51.3534 119.508 54.0602C123.169 57.2902 125 61.5664 125 66.889ZM111.663 62.1806C112.8 63.4998 113.368 65.0579 113.368 66.8549C113.368 68.6063 112.788 70.1644 111.629 71.5292C110.219 73.2124 108.388 74.054 106.137 74.054C104.136 74.054 102.43 73.3546 101.02 71.9557C99.6104 70.5568 98.9055 68.8565 98.9055 66.8549C98.9055 64.8305 99.6047 63.1245 101.003 61.737C102.402 60.3495 104.113 59.6557 106.137 59.6557C108.388 59.6557 110.23 60.4973 111.663 62.1806Z" fill="#0D2192"/>
<path fill-rule="evenodd" clip-rule="evenodd" d="M149.172 59.6238C150.805 59.6238 152.414 59.9979 154 60.746V50.102C153.126 50.034 152.391 50 151.793 50C149.241 50 147.034 50.5441 145.172 51.6323C143.793 52.4485 142.506 53.7747 141.31 55.6111V50.4421H130V82H141.31V68.4995C141.31 66.6631 141.517 65.2009 141.931 64.1126C143.034 61.1201 145.448 59.6238 149.172 59.6238Z" fill="#0D2192"/>
</svg>
