<svg width="120" height="120" viewBox="0 0 120 120" fill="none" xmlns="http://www.w3.org/2000/svg">
<path d="M22.5002 41.2952C20.5832 42.5188 19.0056 44.206 17.9132 46.2007C16.8208 48.1955 16.2488 50.4334 16.2502 52.7077V77.7077C16.2502 89.791 26.0419 99.5827 38.1252 99.5827H75.6253C80.4169 99.5827 84.6294 97.091 87.0378 93.3327H38.1252C33.9812 93.3327 30.007 91.6865 27.0767 88.7562C24.1464 85.826 22.5002 81.8517 22.5002 77.7077V41.2952ZM88.1253 26.666H40.2086C36.7497 26.6658 33.4218 27.9892 30.9076 30.3646C28.3934 32.7401 26.8836 35.9877 26.6877 39.441L26.6669 40.2077V75.6243C26.6667 79.0833 27.9901 82.4111 30.3655 84.9253C32.741 87.4395 35.9886 88.9494 39.4419 89.1452L40.2086 89.166H88.1253C91.5842 89.1662 94.912 87.8429 97.4262 85.4674C99.9404 83.0919 101.45 79.8444 101.646 76.391L101.667 75.6243V40.2077C101.667 36.7488 100.344 33.4209 97.9683 30.9067C95.5928 28.3925 92.3453 26.8827 88.8919 26.6868L88.1253 26.666ZM32.9169 47.0785L62.7086 62.766C63.0923 62.9679 63.5139 63.0877 63.9464 63.1178C64.379 63.148 64.8131 63.0877 65.2211 62.941L65.6211 62.766L95.4169 47.0827V75.6243C95.4168 77.455 94.728 79.2186 93.4876 80.5648C92.2471 81.911 90.5456 82.7414 88.7211 82.891L88.1253 82.916H40.2086C38.378 82.9159 36.6144 82.2271 35.2681 80.9867C33.9219 79.7462 33.0915 78.0447 32.9419 76.2202L32.9169 75.6243V47.0785ZM40.2086 32.916H88.1253C89.9552 32.9161 91.7182 33.6042 93.0644 34.8438C94.4105 36.0835 95.2413 37.7839 95.3919 39.6077L95.4086 40.0243L64.1669 56.466L32.9169 40.0202C32.9658 38.119 33.7556 36.3121 35.1178 34.985C36.48 33.6578 38.3068 32.9154 40.2086 32.916Z" fill="#3EA9F5"/>
</svg>
