<svg width="120" height="120" viewBox="0 0 120 120" fill="none" xmlns="http://www.w3.org/2000/svg">
<path d="M43.53 81.1701C43.1776 81.5246 42.8997 81.9459 42.7125 82.4094C42.5253 82.8729 42.4327 83.3691 42.44 83.8689C42.4474 84.3687 42.5546 84.8619 42.7553 85.3197C42.956 85.7775 43.2463 86.1905 43.6089 86.5345C43.9716 86.8785 44.3993 87.1465 44.867 87.3228C45.3348 87.499 45.833 87.58 46.3325 87.561C46.832 87.542 47.3226 87.4232 47.7755 87.2119C48.2285 87.0005 48.6346 86.7007 48.97 86.3301L71.47 62.5801C72.1304 61.8834 72.4986 60.96 72.4986 60.0001C72.4986 59.0401 72.1304 58.1167 71.47 57.4201L48.97 33.6701C48.2796 32.9755 47.3448 32.5785 46.3655 32.5641C45.3863 32.5497 44.4402 32.919 43.7297 33.593C43.0191 34.267 42.6004 35.1922 42.5631 36.1708C42.5258 37.1495 42.8728 38.1039 43.53 38.8301L60.03 56.2501H13.75C12.7554 56.2501 11.8016 56.6451 11.0983 57.3484C10.3951 58.0517 10 59.0055 10 60.0001C10 60.9946 10.3951 61.9484 11.0983 62.6517C11.8016 63.355 12.7554 63.7501 13.75 63.7501H60.03L43.53 81.1701ZM110 60.0001C110 56.0218 108.42 52.2065 105.607 49.3935C102.794 46.5804 98.9782 45.0001 95 45.0001C91.0218 45.0001 87.2064 46.5804 84.3934 49.3935C81.5804 52.2065 80 56.0218 80 60.0001C80 63.9783 81.5804 67.7936 84.3934 70.6067C87.2064 73.4197 91.0218 75.0001 95 75.0001C98.9782 75.0001 102.794 73.4197 105.607 70.6067C108.42 67.7936 110 63.9783 110 60.0001ZM102.5 60.0001C102.5 61.9892 101.71 63.8968 100.303 65.3034C98.8968 66.7099 96.9891 67.5001 95 67.5001C93.0109 67.5001 91.1032 66.7099 89.6967 65.3034C88.2902 63.8968 87.5 61.9892 87.5 60.0001C87.5 58.0109 88.2902 56.1033 89.6967 54.6968C91.1032 53.2902 93.0109 52.5001 95 52.5001C96.9891 52.5001 98.8968 53.2902 100.303 54.6968C101.71 56.1033 102.5 58.0109 102.5 60.0001Z" fill="#3EA9F5"/>
</svg>
