<svg width="120" height="120" viewBox="0 0 120 120" fill="none" xmlns="http://www.w3.org/2000/svg">
<path d="M31.8672 22.483C29.3808 22.483 26.9962 23.4708 25.2381 25.2289C23.4799 26.9871 22.4922 29.3716 22.4922 31.858V42.3039C22.4922 44.7903 23.4799 47.1748 25.2381 48.933C26.9962 50.6911 29.3808 51.6789 31.8672 51.6789H33.9588V67.1247C33.7615 67.2724 33.5749 67.4339 33.4005 67.608L21.7672 79.2372C21.2834 79.7209 20.8996 80.2951 20.6378 80.9271C20.376 81.5591 20.2412 82.2364 20.2412 82.9205C20.2412 83.6046 20.376 84.282 20.6378 84.914C20.8996 85.546 21.2834 86.1202 21.7672 86.6039L33.4005 98.2372C33.8842 98.721 34.4584 99.1047 35.0904 99.3666C35.7224 99.6284 36.3998 99.7632 37.0838 99.7632C37.7679 99.7632 38.4453 99.6284 39.0773 99.3666C39.7093 99.1047 40.2835 98.721 40.7672 98.2372L52.3922 86.6039C52.5681 86.4299 52.731 86.2433 52.8797 86.0455H68.3547V88.1455C68.3547 89.3767 68.5972 90.5958 69.0683 91.7332C69.5394 92.8706 70.23 93.9041 71.1006 94.7747C71.9711 95.6452 73.0046 96.3358 74.142 96.8069C75.2794 97.278 76.4985 97.5205 77.7297 97.5205H88.1213C90.6077 97.5205 92.9923 96.5328 94.7505 94.7747C96.5086 93.0165 97.4963 90.6319 97.4963 88.1455V77.708C97.4963 75.2216 96.5086 72.8371 94.7505 71.0789C92.9923 69.3208 90.6077 68.333 88.1213 68.333H77.7297C75.2433 68.333 72.8587 69.3208 71.1006 71.0789C69.3424 72.8371 68.3547 75.2216 68.3547 77.708V79.7955H52.8755C52.7278 79.5982 52.5663 79.4117 52.3922 79.2372L40.7672 67.6122C40.5928 67.4367 40.4062 67.2738 40.2088 67.1247V51.6789H42.313C43.5442 51.6789 44.7632 51.4364 45.9007 50.9652C47.0381 50.4941 48.0716 49.8035 48.9421 48.933C49.8127 48.0624 50.5032 47.0289 50.9744 45.8915C51.4455 44.7541 51.688 43.535 51.688 42.3039V31.858C51.688 30.6269 51.4455 29.4078 50.9744 28.2704C50.5032 27.1329 49.8127 26.0995 48.9421 25.2289C48.0716 24.3584 47.0381 23.6678 45.9007 23.1967C44.7632 22.7255 43.5442 22.483 42.313 22.483H31.8672ZM28.7422 31.858C28.7422 31.0292 29.0714 30.2344 29.6575 29.6483C30.2435 29.0623 31.0384 28.733 31.8672 28.733H42.313C43.1418 28.733 43.9367 29.0623 44.5227 29.6483C45.1088 30.2344 45.438 31.0292 45.438 31.858V42.3039C45.438 43.1327 45.1088 43.9275 44.5227 44.5136C43.9367 45.0996 43.1418 45.4289 42.313 45.4289H31.8672C31.0384 45.4289 30.2435 45.0996 29.6575 44.5136C29.0714 43.9275 28.7422 43.1327 28.7422 42.3039V31.858ZM26.9172 82.9205L37.0838 72.7622L47.238 82.9205L37.0838 93.083L26.9172 82.9205ZM77.7255 74.5872H88.1172C88.946 74.5872 89.7408 74.9164 90.3269 75.5025C90.9129 76.0885 91.2422 76.8834 91.2422 77.7122V88.1455C91.2422 88.9743 90.9129 89.7692 90.3269 90.3552C89.7408 90.9413 88.946 91.2705 88.1172 91.2705H77.7255C76.8967 91.2705 76.1019 90.9413 75.5158 90.3552C74.9298 89.7692 74.6005 88.9743 74.6005 88.1455V77.708C74.6005 76.8792 74.9298 76.0844 75.5158 75.4983C76.1019 74.9123 76.8967 74.583 77.7255 74.583V74.5872Z" fill="#3EA9F5"/>
</svg>
